<?xml version="1.0" encoding="utf-8"?>
<!-- Generator: Adobe Illustrator 19.1.0, SVG Export Plug-In . SVG Version: 6.00 Build 0)  -->
<!DOCTYPE svg PUBLIC "-//W3C//DTD SVG 1.1//EN" "http://www.w3.org/Graphics/SVG/1.1/DTD/svg11.dtd">
<svg version="1.1" id="Layer_1" xmlns="http://www.w3.org/2000/svg" xmlns:xlink="http://www.w3.org/1999/xlink" x="0px" y="0px"
	 viewBox="0 0 250 400" enable-background="new 0 0 250 400" xml:space="preserve">
<g>
	<g>
		<polygon fill="#929497" points="151.4,114.9 147.9,117 68.1,101.8 65.2,99 176.1,0.7 		"/>
		<polygon fill="#808184" points="83.5,179.3 87.7,178.9 151.4,115.3 151.4,114.9 65.2,99 		"/>
		<polygon fill="#6D6E70" points="249.5,246 246,248.7 95.8,190.5 83.5,179.3 151.4,114.9 		"/>
		<polygon fill="#58595B" points="83.5,179.3 184.2,334.5 185,334.3 249.3,246.3 249.5,246 		"/>
		<polygon fill="#404041" points="232.3,339.3 228.7,340.7 184.6,336.7 184.2,334.5 249.4,246.1 249.5,246 		"/>
		<polygon fill="#231F20" points="232.3,339.3 184.2,334.5 141.7,399.6 		"/>
	</g>
	<g>
		<polygon fill="#6D6E70" points="78.5,185.6 117.7,246 109.5,254.7 10.4,280.2 0.5,277.4 		"/>
		<polygon fill="#58595B" points="0.5,277.4 0.9,278.6 54.8,322.5 58.2,322.4 117.7,246 		"/>
		<polygon fill="#404041" points="0.5,277.4 58.2,322.4 58.2,324.2 14.2,340.4 10.8,339.3 		"/>
		<polygon fill="#231F20" points="58.2,322.4 88.4,399.6 10.8,339.3 		"/>
	</g>
	<polygon display="none" fill="#58595B" points="102.6,399.6 127.9,399.6 170.6,334.5 121.1,262.4 74.4,322.4 	"/>
	<g display="none">
		<polygon display="inline" fill="#FFFFFF" points="122.1,252.8 66.8,323.6 97.3,400.7 131.7,400.7 175,334.3 		"/>
		<polygon display="inline" fill="#FFFFFF" points="122.1,252.8 66.8,323.6 175,334.3 		"/>
	</g>
	<path display="none" fill="none" d="M160.8,311"/>
	<path display="none" fill="none" d="M84.8,192.2"/>
	<polygon fill="#231F20" points="129,341.4 155,343.8 139.8,364.4 	"/>
</g>
</svg>
