<?xml version="1.0" encoding="utf-8"?>
<!-- Generator: Adobe Illustrator 19.1.0, SVG Export Plug-In . SVG Version: 6.00 Build 0)  -->
<!DOCTYPE svg PUBLIC "-//W3C//DTD SVG 1.1//EN" "http://www.w3.org/Graphics/SVG/1.1/DTD/svg11.dtd">
<svg version="1.1" id="Layer_1" xmlns="http://www.w3.org/2000/svg" xmlns:xlink="http://www.w3.org/1999/xlink" x="0px" y="0px"
	 viewBox="0 0 250 400" enable-background="new 0 0 250 400" xml:space="preserve">
<g>
	<polygon fill="#FFFFFF" points="151.4,114.2 151.4,114.2 151.4,114.2 151.4,114.2 176.1,0 65.2,98.2 65.2,98.2 65.2,98.2 
		83.5,178.5 83.5,178.5 184.2,333.7 141.7,398.9 232.3,338.6 249.5,245.3 	"/>
	<polygon fill="#FFFFFF" points="117.7,245.3 78.5,184.9 0.5,276.7 10.8,338.6 88.4,398.9 58.2,321.7 	"/>
	<polygon display="none" fill="#FFFFFF" points="102.6,398.9 127.9,398.9 170.6,333.7 121.1,261.6 74.4,321.7 	"/>
	<g display="none">
		<polygon display="inline" fill="#FFFFFF" points="122.1,252.1 66.8,322.9 97.3,400 131.7,400 175,333.6 		"/>
		<polygon display="inline" fill="#FFFFFF" points="122.1,252.1 66.8,322.9 175,333.6 		"/>
	</g>
	<path display="none" fill="#FFFFFF" d="M160.8,310.3"/>
	<path display="none" fill="#FFFFFF" d="M84.8,191.5"/>
	<polygon fill="#FFFFFF" points="129,340.6 155,343 139.8,363.6 	"/>
</g>
</svg>
