<?xml version="1.0" encoding="utf-8"?>
<!-- Generator: Adobe Illustrator 19.1.0, SVG Export Plug-In . SVG Version: 6.00 Build 0)  -->
<!DOCTYPE svg PUBLIC "-//W3C//DTD SVG 1.1//EN" "http://www.w3.org/Graphics/SVG/1.1/DTD/svg11.dtd">
<svg version="1.1" id="Layer_1" xmlns="http://www.w3.org/2000/svg" xmlns:xlink="http://www.w3.org/1999/xlink" x="0px" y="0px"
	 viewBox="0 0 230 400" enable-background="new 0 0 230 400" xml:space="preserve">
<g>
	<polygon fill="#F5D04E" points="159.5,4.5 56.5,100.5 136.5,117.5 	"/>
	<polygon fill="#EFB344" points="74.5,180.5 56.5,100.5 136.5,117.5 	"/>
	<polygon fill="#EDA144" points="227.5,245.5 74.5,180.5 136.5,117.5 	"/>
	<polygon fill="#E37636" points="74.5,180.5 227.5,245.5 166.5,332.5 	"/>
	<polygon fill="#CD5433" points="166.5,332.5 211.5,336.5 227.5,245.5 	"/>
	<polygon fill="#C63F31" points="127.5,395.5 211.5,336.5 166.5,332.5 	"/>
	<polygon fill="#D62736" points="156.5,331.5 67.5,319.5 110.5,260.5 	"/>
	<polygon fill="#C62732" points="117.5,395.5 156.5,331.5 67.5,319.5 	"/>
	<polygon fill="#AB272E" points="67.5,319.5 117.5,395.5 93.5,395.5 	"/>
	<polygon fill="#EFB344" points="2.5,275.5 103.5,254.5 62.5,186.5 	"/>
	<polygon fill="#EDA144" points="55.5,320.5 2.5,275.5 103.5,254.5 	"/>
	<polygon fill="#E37636" points="2.5,275.5 55.5,320.5 11.5,337.5 	"/>
	<polygon fill="#CD5433" points="83.5,395.5 11.5,337.5 55.5,320.5 	"/>
	<polygon fill="#FFFFFE" points="125.5,333.5 121.5,359.5 139.5,347.5 	"/>
</g>
</svg>
