<?xml version="1.0" encoding="utf-8"?>
<!-- Generator: Adobe Illustrator 19.1.0, SVG Export Plug-In . SVG Version: 6.00 Build 0)  -->
<!DOCTYPE svg PUBLIC "-//W3C//DTD SVG 1.1//EN" "http://www.w3.org/Graphics/SVG/1.1/DTD/svg11.dtd">
<svg version="1.1" id="Logo" xmlns="http://www.w3.org/2000/svg" xmlns:xlink="http://www.w3.org/1999/xlink" x="0px" y="0px"
	 viewBox="0 0 220 350" enable-background="new 0 0 220 350" xml:space="preserve">
<g id="Logo_1_">
	<g id="right">
		<polygon fill="#FAD447" points="154.5,-0.5 57.5,85.5 133.5,99.5 		"/>
		<polygon fill="#F8B93B" points="73.5,156.5 57.5,85.5 133.5,99.5 		"/>
		<polygon fill="#F9A83A" points="73.5,156.5 219.5,214.5 133.5,99.5 		"/>
		<polygon fill="#F17F30" points="73.5,156.5 219.5,214.5 163,293 		"/>
		<polygon fill="#DE5A30" points="205,297 219.5,214.5 163,293 		"/>
		<polygon fill="#D9412F" points="205,297 125.5,348.5 163,293 		"/>
	</g>
	<g id="left">
		<polygon fill="#F8B93B" points="103.5,214.5 51.5,281.5 0.5,242.5 69.5,161.5 		"/>
		<polygon fill="#F17F30" points="9.5,296.5 51.5,281.5 0.5,242.5 		"/>
		<polygon fill="#DE5A30" points="9.5,296.5 51.5,281.5 78.5,349.5 		"/>
	</g>
	<g id="center">
		<polygon fill="#EB2233" points="155,293 60,282 107.5,219.5 		"/>
		<polygon fill="#DA2231" points="155,293 60,282 85.5,349.5 116.5,349.5 		"/>
		<polygon fill="#FFFFFF" points="123.5,316.5 114.5,298.5 135.5,300.5 		"/>
	</g>
</g>
</svg>
